<?xml version="1.0" encoding="UTF-8"?><svg xmlns="http://www.w3.org/2000/svg" viewBox="0 0 48.92 68.41"><defs><style>.d,.e,.f,.g,.h{stroke:#fff;}.d,.e,.f,.g,.h,.i{stroke-miterlimit:10;}.d,.i{fill:none;stroke-width:2px;}.e{fill:#bababa;}.e,.f,.g,.h{stroke-width:1.5px;}.f{fill:#a6611a;}.g{fill:#dfc27d;}.h{fill:#85734b;}.i{stroke:#493030;}.i,.j{opacity:.8;}.j{fill:#493030;}</style></defs><g id="a"/><g id="b"><g id="c"><g><path class="j" d="M40.07,.33c.29,.31,.34,.71,.6,1.03,.34,.42,.69,.67,.98,1.11,.32,.5,.59,.39,1.19,.46,.5,.06,.76,.4,1.25,.43,.49,.03,.97-.24,1.11,.32,.16,.63,.08,1.05,.66,1.54,.31,.26,.53,.2,.94,.22,.03,.64-.19,.75-.71,1.12-.4,.29-.86,.49-1.23,.77-.82,.61-.78,2.08-.9,2.99-.09,.69,0,1.45,0,2.15,0,.52-.1,1.29,.3,1.66,.23,.21,.28,.14,.4,.41,.12,.27,.18,.76,.07,1.04-.11,.27-.38,.52-.55,.75-.15,.2-.25,.47-.43,.67-.34,.37-.5,.37-.52,.86-.02,.5,.05,1.01-.18,1.48-.09,.18-.31,.32-.38,.48-.08,.2,.04,.45-.04,.64-.11,.28-.43,.35-.63,.57-.18,.2-.24,.44-.38,.68-.19,.33-.46,.64-.58,1.01-.2,.6-.08,.91-.63,1.33-.68,.51-.11,.93,.14,1.61,.08,.21,.2,.41,.22,.64,.02,.42-.32,.58-.52,.91-.32,.53-.34,1.17-.4,1.77-.14,1.45-.89,2.73-1.2,4.14-.13,.6-.18,1.23-.26,1.85-.14,1.13-.57,2.15-.78,3.26-.11,.59-.37,1.1-.51,1.69-.22,.93-.95,1.72-1.12,2.64-.04,.21-.09,.46-.05,.68,.03,.19,.34,.53,.26,.73-.07,.17-.61,.39-.78,.52-.22,.17-.43,.3-.52,.55-.17,.49,.05,.82-.24,1.31-.25,.43-.34,.9-.59,1.33-.24,.41-.55,.81-.82,1.22-.32,.48-.54,.57-1.03,.87-.3,.18-.3,.07-.28,.51,.02,.53,.2,.55-.27,.87-.49,.34-1.06,.44-1.55,.78-.47,.31-.62,.7-.92,1.12-.38,.55-.36,.77-.43,1.48-.11,1.06-1.23,1.53-1.43,2.63-.1,.54,0,1.1-.13,1.64-.12,.54-.52,.96-.6,1.52-.14,.98-.14,2.07-.17,3.06-.02,.48,.02,.95,.04,1.43,.02,.33,.19,1.25,.03,1.51-.24,.4-.79,.3-1.03,.75-.4,.75-.03,.72,.3,1.32-.3,.03-.38-.44-.54-.64-.24-.29-.38-.32-.75-.34-.37-.02-.43,.01-.68,.2-.32,.24-.41,.4-.56-.17-.12-.44-.11-.89-.22-1.33-.14-.53-.03-.72,.17-1.21,.48-1.16-.21-2.42-.6-3.51-.28-.78-.89-1.21-1.35-1.87-.33-.48-.63-1.28-1.2-1.52-.15-.06-.36-.02-.52-.08-.28-.1-.5-.35-.74-.51-.26-.17-.54-.34-.81-.49-.54-.3-1.48-.51-1.82-1.06-.16-.26-.18-.65-.33-.93-.18-.34-.4-.65-.62-.96-.22-.32-.31-.56-.3-.95,0-.33,.19-.73,.08-1.06-.14-.43-.61-.69-.87-1.01-.36-.44-.4-1-.56-1.52-.13-.42-.4-.78-.47-1.21-.08-.5,.06-1.02-.17-1.49-.22-.45-.67-.83-1.09-1.07-.76-.43-.81-1.02-.98-1.77,.9-.18,.4-1.72,.63-2.43,.16-.48,.42-.85,.53-1.36,.12-.6,.46-.89,.69-1.43,.34-.8,.35-2.08-.08-2.87-.14-.26-.27-.21-.3-.56-.03-.29,.08-.57,.14-.85,.12-.54,.23-1.22,.47-1.72,.19-.4,.58-.71,.46-1.22-.05-.24-.19-.34-.21-.62-.02-.3,.04-.41,.18-.66,.32-.56,.67-.49,1.23-.73,.37-.16,.56-.52,.88-.82,.49-.46,.47-1.16,.78-1.72,.27-.49,.53-.85,.69-1.38,.12-.39,.31-.68,.44-1.07,.21-.61,.37-.86,.85-1.3,.54-.5,.78-.82,.91-1.56,.1-.55,.23-.77,.51-1.26,.24-.41,.45-.84,.77-1.22,.45-.53,.77-.98,1.1-1.61,.13-.25,.29-.52,.43-.75,.33-.5,.78-.81,.94-1.4,.14-.5,.12-.78,.44-1.21,.3-.41,.63-.96,1.04-1.28,.37-.3,.84-.24,1.19-.5,.37-.28,.6-.74,.75-1.15,.17-.47,.51-.83,.75-1.29,.18-.35,.23-.74,.37-1.1,.28-.69,.73-1.12,1.11-1.76,.32-.54,.43-1.07,.83-1.58,.48-.61,1.32-.9,2.04-1.09,.35-.09,.71-.13,1.04-.26,.42-.17,.76-.47,1.2-.58,.82-.21,1.62-.18,2.37-.68,.59-.4,.07-.78,.29-1.33,.11-.28,.35-.6,.58-.8,.32-.27,.56-.18,.94-.28,.77-.19,1.57-.91,2.28-.16h0Z"/><path class="i" d="M35.12,45.02l1.26,5.34c.54,1.3,1.76,2.18,3.16,2.31l9.32,.58"/><path class="d" d="M15.68,54.97c1.39-.1,2.67-.96,3.23-2.32l5.71-22.51c1.3-3.1,5.68-3.1,6.98,0l3.51,14.88"/><path class="i" d="M.74,59.23l4.58-4.98c1-1.08,2.53-1.49,3.94-1.05l5.02,1.6c.47,.15,.94,.2,1.41,.17"/><circle class="f" cx="6.95" cy="52.25" r="3.65"/><circle class="g" cx="27.99" cy="26.34" r="4.34"/><circle class="h" cx="19.36" cy="52.25" r="1.69"/><circle class="e" cx="38.79" cy="52.25" r="2.91"/></g></g></g></svg>